<svg xmlns="http://www.w3.org/2000/svg" xmlns:xlink="http://www.w3.org/1999/xlink" width="137" height="40" viewBox="0 0 137 40">
    <defs>
        <path id="prefix__a" d="M0 0L38 0 38 38 0 38z"/>
    </defs>
    <g fill="none" fill-rule="evenodd">
        <g fill="#BBBDBF">
            <g>
                <path d="M14.074 1.126c1.7 0 2.987 1.728 2.987 3.856 0 2.136-1.288 3.864-2.987 3.864-1.693 0-2.984-1.728-2.984-3.864 0-2.128 1.29-3.856 2.984-3.856m-.105 8.792c3.539 0 5.651-2.213 5.651-4.936 0-2.722-2.112-4.928-5.651-4.928-3.535 0-5.652 2.206-5.652 4.928 0 2.723 2.117 4.936 5.652 4.936M23.955 9.436L26.738 9.436 26.738 1.511 29.857 1.511 29.857.429 20.26.429 20.26 1.511 23.955 1.511zM34.109 9.436L36.952 9.436 36.952 1.511 40.734 1.511 40.734.429 30.924.429 30.924 1.511 34.109 1.511zM1.066 9.436h6.825v-1.08H3.205c-.293 0-.533-.24-.533-.538V.428H0V8.36c0 .594.477 1.076 1.066 1.076M45.424 1.491h5.12V.43h-7.26c-.581 0-1.057.478-1.057 1.069V8.36c0 .594.476 1.076 1.056 1.076h7.261V8.373h-5.12c-.296 0-.532-.242-.532-.538V5.18h5.573V4.128h-5.573V2.026c0-.295.236-.535.532-.535" transform="translate(48 9) translate(0 4.057)"/>
            </g>
            <g>
                <path d="M8.92 13.667c-2.582 0-4.673-2.104-4.673-4.698 0-2.596 2.091-4.698 4.673-4.698 2.581 0 4.672 2.102 4.672 4.698 0 2.594-2.091 4.698-4.672 4.698M8.92 0C3.993 0 0 4.015 0 8.97c0 4.952 3.993 8.968 8.92 8.968 4.926 0 8.92-4.016 8.92-8.969C17.84 4.015 13.845 0 8.92 0" transform="translate(48 9) translate(55.016)"/>
                <path d="M27.321 9.399l-5.83-7.904h-3.664V4.52c.696 1.357 1.096 2.898 1.096 4.527 0 1.635-.4 3.17-1.096 4.53v2.865h3.885V8.244l6.053 8.2h3.441V1.493h-3.885V9.4z" transform="translate(48 9) translate(55.016)"/>
            </g>
        </g>
        <g transform="translate(1 1)">
            <mask id="prefix__b" fill="#fff">
                <use xlink:href="#prefix__a"/>
            </mask>
            <path fill="#BBBDBF" d="M28.459 25.768c-1.61 2.563-3.744 4.366-5.698 4.818-.005.002-.02.007-.044.01-.36.065-.713.1-1.05.1-1.26 0-2.148-.481-2.777-.9-.627-.412-1.213-.966-1.74-1.643-3.36-4.316-3.592-12.407-3.608-13.318-.037-2.153.277-5.069 1.957-6.74.823-.81 1.847-1.223 3.056-1.223h.194c1.212 0 2.246.412 3.061 1.222 1.688 1.672 1.996 4.588 1.957 6.74-.04 2.247-.452 6.592-2.772 10.49-.196.313-.538.51-.906.51-.191 0-.382-.05-.541-.147-.502-.3-.666-.948-.368-1.445 1.627-2.727 2.416-5.726 2.476-9.441.042-2.467-.43-4.314-1.33-5.207-.415-.418-.935-.62-1.577-.62h-.186c-.643 0-1.157.202-1.58.62-.896.893-1.375 2.743-1.328 5.207.045 3.035.774 8.987 3.161 12.057.382.493.8.893 1.23 1.178.422.28.894.551 1.631.551.199 0 .413-.023.637-.06 1.372-.33 3.083-1.852 4.358-3.882.199-.311.533-.494.896-.494.196 0 .394.055.56.16.24.153.401.386.47.66.057.277.015.557-.14.797m-14.12 4.91h-.054c-.63 0-1.142-.497-1.173-1.127-.01-.31.097-.614.31-.844.212-.232.505-.368.821-.381.645-.026 1.197.48 1.218 1.128.028.646-.473 1.194-1.121 1.223m20.434-19.5l-7.95-7.95c-4.297-4.303-11.343-4.303-15.643 0l-7.95 7.95c-4.307 4.303-4.307 11.344 0 15.644l7.95 7.95c4.3 4.305 11.346 4.305 15.643 0l7.95-7.95c4.303-4.3 4.303-11.341 0-15.644" mask="url(#prefix__b)"/>
        </g>
    </g>
</svg>
